# xmcd
#
# Track frame offsets: 
#        150
#        6095
#        18654
#        28634
#        39770
#        47432
#        57596
#        65234
#        79500
#        85867
#        94113
#        102808
#
# Disc length: 1514 seconds
#
# Revision: 0
# Processed by: cddbd v1.5.2PL0 Copyright (c) Steve Scherf et al.
# Submitted via: ExactAudioCopy v1.0b3
#
DISCID=8b05e80c
DTITLE=Reeves Jim - Legends In Music CD1
DYEAR=2007
DGENRE=Country
TTITLE0=01 Have I Told You Lately Thad I Love You
TTITLE1=02 Bimbo
TTITLE2=03 Just Call Me Lonesome
TTITLE3=04 Am I Losing You
TTITLE4=05 Oklahoma
TTITLE5=06 Anna Marie
TTITLE6=07 ‎Till The End Of The World
TTITLE7=08 Hyghway To Forget You
TTITLE8=09 I'm Biginning To Fotget You
TTITLE9=10 Wayting For A Tain
TTITLE10=11 If You Were Mine
TTITLE11=12 I Love You More
EXTD=
EXTT0=
EXTT1=
EXTT2=
EXTT3=
EXTT4=
EXTT5=
EXTT6=
EXTT7=
EXTT8=
EXTT9=
EXTT10=
EXTT11=
PLAYORDER=
